<?xml version="1.0" encoding="UTF-8" standalone="no"?> <svg id="Layer_1" data-name="Layer 1" xmlns="http://www.w3.org/2000/svg" viewBox="0 0 48 48"><title>Muslim</title><path d="M24.079,10a40.146,40.146,0,0,1,9.874,1.061,10,10,0,0,0-19.906,0A42.027,42.027,0,0,1,24.079,10Z"/><path d="M36.728,29.216a18.06,18.06,0,0,0-4.683-3.338A11.937,11.937,0,0,1,25,28.949v6a1,1,0,0,1-2,0v-6a11.936,11.936,0,0,1-7.039-3.066A17.785,17.785,0,0,0,6,41.81a4.152,4.152,0,0,0,1.241,2.962A4.237,4.237,0,0,0,10.235,46H37.764A4.213,4.213,0,0,0,42,41.81,17.665,17.665,0,0,0,36.728,29.216Z"/><path d="M33.708,13.068A36.711,36.711,0,0,0,24.079,12a38.5,38.5,0,0,0-9.8,1.071L14,13.154V17a10,10,0,0,0,20,0V13.157Z"/></svg>