<svg version="1.1" id="Layer_1" xmlns="http://www.w3.org/2000/svg" xmlns:xlink="http://www.w3.org/1999/xlink" x="0px" y="0px" viewBox="0 0 345.0156 251.3508" enable-background="new 0 0 345.0156 251.3508" xml:space="preserve">
<g>
<polygon points="278.0361,84.1124 293.1767,87.0432 294.8691,79.8117 283.8242,65.7941 272.8037,62.2512 274.7031,54.1124 
		282.7031,53.7784 283.3691,51.4444 274.0361,52.1124 266.0361,44.1124 264.0361,45.4444 271.7031,53.7784 269.8242,61.2932 
		260.0351,58.1457 250.1337,63.9709 252.0361,65.1124 	" id="id_209"></polygon>
<path d="M338.3691,165.1124l-9-40l-10.25-15.6279l-16.3066,7.7461l0.6962,16.7002l6.2559,2.1445l6.8145-1.4404l0.413,1.9541
		l-7.3544,1.5566l-11.4112-3.9111l-17.3213,13.6621v0.0019l-1.2402-1.5732l18.1787-14.3369l3.6318,1.2451l-0.7177-17.2412
		l17.2549-8.1953l-3.1768-4.8418l-5.7998-8.8428l-24.4268-4.7275l-11.8232,16.2275l-29.5-4.75l-26.5-15.75l-7.0293-31.5273
		l-21.0908,4.247l-0.8252-3.834l-1.8047-8.3857l9,2l0.5-3.5l-7-1.5l14.5-6l-2-3l-12,5.5l-4.5,1v-6l-4,1.5l1,5l-4-2l-8-8.5
		l-1.499,1.166l7.9521,9.627l4.9219,4.832l0.6748,9.5205l0.2793,3.9443l-7.8291,1.5762L161.5878,77.674l14.6983,13.4385l19.5-5
		l0.75,2.5l-20.5,5.5L158.6093,81.716l-3.2392,4.3965l-14.6016,6.9902l-1.4805-3.292l-3.9716-8.831l5.1533-5.6055l-0.9873-1.3847
		l-5.4268,5l-1.5039-3.3438l-2.0976,0.2109l1.0019,4.668l-11.0488-3.4375l-0.6992,2.5059l13.666,4.1797l3.2822,7.2988l1.4805,3.291
		l-14.1006,6.75l-18.1328,25.6367c0.0664,2.3272,0.1123,4.6934,0.1162,7.1465c0,6.084-0.2041,12.6484-0.6045,19.5156
		c-0.3018,5.1543-3.3789,9.5235-7.7207,11.7012h6.6084l-4.9336,6l12.334,6l18.333,2l5.2588-6.4727l0.2578-0.3164l5.8584-7.2109
		h5.6484l-0.1162-0.8887l-0.0849-0.6494l7.0869-4.2539l-0.4844-3.7236l-0.0899-0.6856l16.9561-9.0791l6.1797,2.7334l1.2666-7.4785
		l26.7627-20.4746l24,2.5l11.5,11l8.8418,14.6094l11.4736,3.4668l4.0362,4.9668l7.5947,2.2041l4.3701,5.3769l-0.294,0.376h1.7764
		l0.3662,2.8066l3.5782,1.1934l10.7568,3l7-7h10.2226l0.7012,5.3691l5.1211,1.7071l9.6201-0.2364l5.419-4.6543l-1.1289-2.1855
		H338.3691z" id="id_210"></path>
<polygon points="244.5361,98.1124 272.2861,101.6124 281.7099,88.8234 278.0361,88.1124 252.0361,69.1124 222.0361,51.1124 
		211.8017,53.173 219.5361,84.1124 	" id="id_211"></polygon>
<polygon points="239.0595,158.5246 235.0361,150.3624 225.2861,138.1124 200.956,131.3282 184.7275,144.6848 182.5332,156.8293 
		185.8466,165.1124 237.3515,165.1124 	" id="id_212"></polygon>
<polygon points="226.0361,134.6124 236.5361,148.6124 239.7793,155.7473 240.4843,153.0275 240.5937,152.5997 243.2509,151.1916 
		236.0166,138.3488 226.581,128.6496 206.8896,126.4445 202.8974,129.7296 	" id="id_213"></polygon>
<path d="M19.9628,157.0793h-1.3486c-1.581,3.5215-4.9668,6.0889-9.041,6.458c0.3105,2.4619,2.3906,4.376,4.9365,4.376h5.4531
		V157.0793z" id="id_214"></path>
<path d="M90.4472,163.5372c-2.7871-0.2451-5.3496-1.5195-7.2285-3.6299c-0.7617-0.8574-1.3701-1.8115-1.8252-2.8281h-1.3369v10.834
		h5.4531C88.0576,167.9133,90.1367,165.9991,90.4472,163.5372z" id="id_215" style="fill: rgb(1, 25, 46);"></path>
<path d="M69.3281,61.8664c0.1484,0,0.2949,0.0098,0.4414,0.0195c2.1289,0.0254,5.5586,0.4746,9.4844,2.4532
		c2.7988,1.3964,6.7861,4.1054,10.5498,9.1601c2.3808-0.3838,4.2041-2.4306,4.2041-4.9199v-16.5c0-2.7617-2.2383-5-5-5H73.2773
		c-3.4766,7.7393-10.6963,13.4453-19.3438,14.7871H69.3281z" id="id_216"></path>
<path d="M10.2334,73.5012c3.0654-4.1016,6.6455-7.2373,10.5459-9.17c3.8671-1.9531,7.2636-2.4101,9.4433-2.4453
		c0.1973-0.0117,0.332-0.0195,0.4707-0.0195h15.3906c-8.6484-1.3418-15.8681-7.0478-19.3447-14.7871H11.0078c-2.7598,0-5,2.2383-5,5
		v16.5C6.0078,71.0754,7.8437,73.1271,10.2334,73.5012z" id="id_217"></path>
<path d="M77.0566,119.8566c-2.2832-2.5009-4.0664-5.9365-5.7354-9.9785c-1.8984-4.6611-3.5302-10.1318-4.8847-15.7539
		c-2.6211-10.917-4.1885-22.2666-4.292-29.2578H37.874c-0.1748,10.5713-3.6397,31.3164-9.1778,45.0127
		c-1.6679,4.0391-3.4502,7.4717-5.7314,9.9756v119.1328c0,6.8301,5.5371,12.3633,12.3633,12.3633
		c6.8281,0,12.3652-5.5332,12.3652-12.3633V148.716h4.6348v90.2715c0,6.8301,5.5371,12.3633,12.3633,12.3633
		c6.8281,0,12.3652-5.5332,12.3652-12.3633V119.8566z" id="id_218"></path>
<path d="M90.9726,160.5811c0.1582,0.0079,0.3164,0.0137,0.4727,0.0137c4.205,0,7.7324-3.2812,7.9804-7.5332
		c0.4024-6.9336,0.5918-13.3008,0.5918-19.1562c-0.041-30.1817-4.8613-46.8868-11.4355-56.9297
		c-3.2852-4.9883-7.127-8.1836-10.6777-9.9571c-3.42-1.7246-6.4239-2.1113-8.2247-2.1347
		c-0.1191-0.0039-0.2343-0.0176-0.3515-0.0176h-1.1885c0.1231,9.4844,3.6113,30.2842,8.7354,42.7471
		c0.0595,0.1484,0.121,0.2851,0.1816,0.4306V89.0285c0.5918,1.2168,1.1894,2.6113,1.7793,4.2383
		c2.8184,7.8125,5.1894,20.6309,5.1797,40.6387c0,5.5136-0.1758,11.5722-0.5645,18.2226
		C83.1933,156.5401,86.5605,160.3233,90.9726,160.5811z" id="id_219"></path>
<path d="M22.9648,108.0313c0.0576-0.1406,0.1182-0.2734,0.1758-0.4169c1.7344-4.253,3.3066-9.4844,4.6074-14.8936
		c2.5205-10.4307,4.0352-21.626,4.127-27.8545h-1.1817c-0.1289,0-0.2539,0.0137-0.3789,0.0195
		c-1.8066,0.0254-4.7988,0.418-8.2031,2.1328c-5.3789,2.6661-11.1758,8.502-15.2344,18.8399
		C2.7714,96.2394,0.0117,111.2473,0,133.9034c0,5.8574,0.1894,12.2246,0.5937,19.1582c0.25,4.252,3.7754,7.5332,7.9805,7.5332
		c0.1582,0,0.3164-0.0039,0.4765-0.0137c4.4082-0.2597,7.7754-4.0449,7.5176-8.455C16.1757,145.4758,16,139.4191,16,133.9034
		c-0.0352-24.2148,3.496-37.8183,6.9648-44.918V108.0313z" id="id_220"></path>
<path d="M65.8271,20.6721c-4.0635-4.0196-9.6494-6.503-15.8174-6.503c-12.4258,0-22.5,10.0743-22.5,22.5
		c0,12.4278,10.0742,22.5,22.5,22.5c11.3994,0,20.8086-8.4755,22.2891-19.4687c-2.0283-0.1035-4.168-0.3223-6.3692-0.6641
		c-11.5214-1.7929-20.4023-6.3066-20.1455-10.1718c1.5244,3.4619,10.4424,6.121,21.2471,6.121
		c8.1533,0,15.2461-1.5136,18.8906-3.7431c1.6631-1.0176,2.6094-2.1846,2.6094-3.4248c0-3.6338-8.125-6.6289-18.6455-7.0957
		c-0.9355-0.041-1.8838-0.0703-2.8545-0.0703C66.625,20.6516,66.2285,20.6643,65.8271,20.6721z" id="id_221"></path>
<path d="M306.7519,18.7766c-0.6064-13.4981-18.1533-7.8731-18.1533-7.8731s-7.2207-16.9512-17.8281-8.582
		c8.623-0.3203,13.8144,9.9453,15.3281,14.0488C290.1933,14.8312,301.3554,12.0461,306.7519,18.7766z" id="id_222"></path>
<path d="M305.7187,53.7609c4.0947-1.539,15.2568-4.3261,20.6533,2.4063c-0.6064-13.5-18.1523-7.875-18.1523-7.875
		s-7.2217-16.9512-17.8281-8.5801C299.0146,39.3879,304.2041,49.6554,305.7187,53.7609z" id="id_223"></path>
<polygon points="183.6201,164.9348 178.2578,151.5266 170.4091,148.0558 155.5322,156.0226 155.9326,159.093 164.3154,161.5266 
		167.9404,165.9854 176.373,165.7784 	" id="id_224"></polygon>
<polygon points="248.4707,150.6866 242.3095,153.9552 239.6933,164.05 241.7265,164.7276 241.6933,164.4729 241.6093,163.8233 
		247.5156,160.2784 254.5019,162.3078 254.6894,162.6554 254.6113,162.0578 254.5253,161.4054 261.746,157.0744 259.1884,153.9279 	
		" id="id_225"></polygon>
<polygon points="166.1289,166.927 163.1591,163.2735 155.1318,160.9415 149.0117,164.6154 149.6943,169.8351 154.0107,171.2735 
		162.9003,171.0549 	" id="id_226"></polygon>
<polygon points="273.7959,164.7619 270.8271,161.1075 262.7959,158.7766 256.6787,162.4483 257.3603,167.6682 261.6787,169.1075 
		270.5683,168.8889 	" id="id_227"></polygon>
<polygon points="254.3994,166.3322 253.1386,163.9973 247.7988,162.4436 243.7617,164.8644 244.1923,168.1691 247.0097,169.1075 
		252.9765,168.9601 	" id="id_228"></polygon>
<polygon points="141.4619,171.1096 137.4287,173.5314 137.8603,176.8351 140.6767,177.7726 146.4375,177.6311 147.0166,174.9259 
		146.6103,172.6046 	" id="id_229"></polygon>
<polygon points="339.4628,171.1086 335.4287,173.5304 335.8593,176.8342 338.6777,177.7726 344.4355,177.6301 345.0156,174.925 
		344.6103,172.6037 	" id="id_230"></polygon>
<polygon points="176.1591,176.9025 170.4609,174.2901 166.663,177.6554 167.1113,181.0851 169.9287,182.0235 176.1171,181.8712 
		178.8144,179.5567 	" id="id_231"></polygon>
<polygon points="236.6582,170.6525 230.9599,168.0432 227.1621,171.4073 227.6103,174.8351 230.4287,175.7717 236.6181,175.6203 
		239.3154,173.3058 	" id="id_232"></polygon>
<polygon points="208.7861,188.8624 204.1035,193.0108 204.7011,197.5871 208.2793,198.7784 215,198.6124 218.7861,195.3624 
		214.8691,187.7784 	" id="id_233"></polygon>
<polygon points="247.1201,180.8624 242.4375,185.0108 243.0351,189.5871 246.6132,190.7784 253.3339,190.6124 257.1201,187.3624 
		254.7861,182.1124 	" id="id_234"></polygon>
<polygon points="299.7871,175.5284 295.1044,179.6788 295.7021,184.2531 299.2802,185.4464 306.0009,185.2804 309.7871,182.0284 
		307.4531,176.7784 	" id="id_235"></polygon>
</g>
</svg>